<svg xmlns="http://www.w3.org/2000/svg" fill="#f00" viewBox="0 0 24 24"><path fill-rule="evenodd" d="M8.598 2.039c-.129.027-.124-.039-.14 1.682l-.01 1.034-2.485.018-2.484.017v1.733H12l8.521-.001V4.788h-4.969V2.053l-.417-.007c-1.163-.022-6.436-.027-6.537-.007m1.618 2.249v.5h3.535v-1h-3.535zM4.946 14.41c0 6.709.004 6.893.13 7.101.299.489-.234.454 6.871.454 6.985 0 6.682.017 6.94-.4.132-.213.134-.323.134-7.129V7.523H4.946zm2.668.317v5.47h1.734V9.258H7.614zm3.469-.002v5.472h1.802l-.017-5.453-.018-5.453-.883-.019-.884-.018zm3.535.002v5.47h1.768l-.017-3.318c-.008-1.826-.016-4.287-.016-5.47l-.001-2.151h-1.734z"/></svg>