<svg xmlns="http://www.w3.org/2000/svg" fill="#ecf9ff" viewBox="0 0 24 24"><path fill-rule="evenodd" d="M11.467 2.939a1.55 1.55 0 0 0-.679.649c-.115.211-.124.477-.142 3.954l-.019 3.727H9.231c-1.396 0-1.396 0-1.569.206-.377.449-.46.317 2.067 3.275 1.991 2.33 1.984 2.324 2.486 2.191.235-.063 4.097-4.478 4.235-4.842a.61.61 0 0 0-.183-.695c-.159-.125-.27-.135-1.566-.135h-1.395V7.522c0-4.109.019-3.91-.412-4.322-.373-.356-.966-.465-1.427-.261M2.81 13.85a1.3 1.3 0 0 0-.68.65c-.124.242-.13.38-.11 2.574.02 2.319.02 2.319.232 2.767.261.549.672.972 1.196 1.229.397.195.397.195 8.522.195s8.125 0 8.57-.219c.551-.271 1.052-.8 1.269-1.336.149-.37.155-.466.176-2.557.015-1.515-.002-2.254-.056-2.44-.189-.648-.718-1.006-1.413-.956-.433.031-.626.142-.955.548-.204.253-.204.253-.238 2.269l-.033 2.016-7.305.017-7.304.017-.001-1.922c-.002-1.726-.014-1.95-.125-2.19a1.347 1.347 0 0 0-1.745-.662"/></svg>