<svg xmlns="http://www.w3.org/2000/svg" fill="#ecf9ff" viewBox="0 0 24 24"><path fill-rule="evenodd" d="M11.344 2.102C5.6 2.996 2.06 8.804 3.938 14.253 5.73 19.45 11.64 22 16.527 19.685c3.304-1.565 5.401-4.814 5.406-8.377.007-4.666-3.507-8.667-8.109-9.233-.606-.075-1.917-.06-2.48.027m.49 1.075c-5.088.575-8.428 5.691-6.876 10.53.913 2.845 3.252 4.929 6.248 5.567.704.15 2.357.135 3.081-.027 1.624-.364 2.899-1.067 4.092-2.258 2.479-2.473 3.103-6.094 1.594-9.239-1.472-3.067-4.82-4.948-8.139-4.573M8.513 7.099l-.883.895 1.628 1.632 1.628 1.631L9.261 12.9l-1.625 1.642.898.896.898.895 1.626-1.642 1.626-1.641 1.629 1.628c.897.896 1.644 1.629 1.662 1.629.017 0 .416-.402.885-.893l.853-.894-1.61-1.611c-1.734-1.734-1.697-1.684-1.4-1.898.052-.037.751-.735 1.553-1.55l1.458-1.481-.885-.887-.886-.887-1.636 1.636-1.636 1.635-1.637-1.637-1.638-1.637z"/></svg>