<svg xmlns="http://www.w3.org/2000/svg" fill="rgba(219, 18, 18, 1)" viewBox="0 0 24 24"><path fill-rule="evenodd" d="M3.304 2.152a1.7 1.7 0 0 0-.445.314c-.409.436-.386-.102-.386 8.959 0 4.55.026 8.288.057 8.307s1.04.304 2.243.632c2.158.589 4.297 1.177 5.422 1.491.318.089.595.145.615.125.021-.021.037-.421.037-.89v-.853h1.903c2.159 0 2.311-.024 2.72-.433.431-.43.435-.47.414-3.954l-.019-3.09h-1.396l-.017 3.007-.017 3.008h-3.587l-.017-6.928-.017-6.929-1.13-.314c-.621-.174-1.743-.484-2.492-.691-.75-.207-1.393-.406-1.429-.442q-.068-.068.1-.026c.091.023 2.057.042 4.369.042l4.204.001v6.048h1.462v-3.14c0-3.389-.01-3.495-.352-3.884-.45-.512-.067-.483-6.36-.483-5.327 0-5.63.006-5.882.123m13.806 5.74-.547.55.932.929.931.93-2.998.033-2.999.033-.031.781-.031.781h1.051c2.918-.001 5.006.024 5.006.061 0 .022-.404.443-.897.936-.494.492-.898.916-.898.941s.241.292.536.595l.535.551 1.925-1.926 1.925-1.925-1.897-1.893c-1.043-1.041-1.919-1.9-1.946-1.91-.027-.009-.296.231-.597.533m-8.182 4.407c-.201.256-.247.704-.109 1.064.312.818.947.475.886-.479-.043-.667-.463-.984-.777-.585"/></svg>