<svg xmlns="http://www.w3.org/2000/svg" width="17.42" height="18.12" viewBox="0 0 17.42 18.12"><g id="uuid-644ccfae-6e88-4e29-86f1-db2aa9edddb1"><path d="M7.39.12C.6,1.45-2.32,9.63,2.11,14.9c1.83,2.19,4.06,3.22,6.91,3.21,2.31,0,3.9-.59,5.73-2.11,1.08-.9,2.93-3.71,2.64-4.01-.04-.04-.39,0-.79.06C10.35,13.21,5.66,6.75,8.57.99l.5-.99h-.59c-.37.02-.73.06-1.09.12M5.11,3.16c-3.71,2.57-4.18,7.78-1,10.95,2.56,2.56,6.32,2.79,9.13.56.63-.5.72-.67.35-.67-.95,0-3.19-.99-4.36-1.93-2.49-1.99-3.99-5.82-3.44-8.77.13-.7.14-.7-.66-.14" style="fill-rule:evenodd;"/></g></svg>