<svg xmlns="http://www.w3.org/2000/svg" fill="#fff" viewBox="0 0 24 24"><path fill-rule="evenodd" d="M3.852 2.162c-.772.205-1.448.856-1.718 1.654-.131.389-.134.598-.116 8.346.018 7.947.018 7.947.202 8.34.225.479.734 1.002 1.229 1.263.369.194.369.194 8.449.212 8.08.019 8.08.019 8.5-.178.688-.322 1.202-.865 1.454-1.535.137-.367.148-13.258.011-13.688-.166-.523-.381-.78-1.993-2.385-1.771-1.764-1.891-1.863-2.457-2.031-.524-.156-12.975-.154-13.561.002m2.946 4.156c.038 2.56.035 2.543.457 2.943.492.467.465.463 4.066.465 2.114 0 3.351-.025 3.529-.073a1.67 1.67 0 0 0 .981-.743c.184-.313.184-.313.204-2.626l.021-2.312H11.41l-4.646-.001zm6.785-1.54c-.239.042-.533.266-.653.498-.151.291-.147 2.794.005 3.088.32.619 1.317.619 1.638 0 .151-.294.155-2.797.004-3.088a.97.97 0 0 0-.994-.498m-6.642 8.535a1.56 1.56 0 0 0-.788.965c-.052.204-.077 1.223-.075 3.069l.003 2.762 5.909.018 5.909.017v-2.836c0-3.135-.01-3.223-.431-3.665-.484-.51-.214-.486-5.496-.486-4.728.001-4.728.001-5.031.156"/></svg>