<?xml version="1.0" encoding="UTF-8"?><svg id="uuid-3f09907e-003b-49e3-8589-37e1c83fb506" xmlns="http://www.w3.org/2000/svg" width="18.98" height="19.93" viewBox="0 0 18.98 19.93"><g id="uuid-6459de70-c1fe-49f5-bca9-c9579775cccf"><path d="M7.76.08c-.22.1-.54.44-.6.64-.02.07-.1.49-.17.95-.17,1.04-.16,1.03-.8,1.37-.34.18-.68.38-1,.59-.59.39-.68.39-1.63.01-.84-.33-1.1-.4-1.4-.34-.27.05-.7.43-.9.79C-.05,6.37-.07,6.44.04,6.88c.09.33.35.63,1.04,1.16.31.24.6.49.66.55.12.15.16,2.5.04,2.65-.04.05-.36.33-.72.61-1.27,1.02-1.3,1.24-.43,2.84,1.1,2.01,1.36,2.15,2.8,1.59,1.2-.47,1.12-.47,1.96.09.22.15.61.37.86.49.56.26.57.28.73,1.34.23,1.51.42,1.67,1.98,1.71,2.51.07,2.75-.07,3.05-1.75.17-.99.2-1.04.65-1.25.19-.09.6-.33.92-.54.81-.53.82-.53,1.87-.13,1.55.6,1.66.55,2.77-1.29,1.06-1.76,1.03-2.09-.32-3.13-.39-.3-.73-.6-.74-.67s-.03-.65-.03-1.29c0-1.34-.1-1.13,1.03-2.05,1.1-.89,1.09-1.1-.07-3.12-.94-1.63-1.15-1.7-2.87-.98-.69.29-.88.28-1.39-.09-.32-.21-.65-.41-.98-.59-.68-.35-.7-.39-.86-1.43C11.74.06,11.69.03,9.57,0c-1.23-.01-1.65,0-1.81.08M8.56,6.28c-1.27.35-2.27,1.29-2.66,2.48-1.04,3.19,2.35,6.06,5.33,4.51,1.88-.98,2.59-3.18,1.64-5.05-.41-.8-1.26-1.54-2.11-1.85-.54-.19-1.68-.24-2.2-.09" style="fill-rule:evenodd;"/></g></svg>