<svg xmlns="http://www.w3.org/2000/svg" fill="#ecf9ff" viewBox="0 0 24 24"><path fill-rule="evenodd" d="M11.866 3.098c-6.217.723-9.866 7.34-7.131 12.93 1.236 2.526 3.67 4.393 6.432 4.935.722.142 2.783.126 3.49-.027a9.23 9.23 0 0 0 6.827-6.185c.516-1.592.492-3.78-.059-5.471-.345-1.057-.278-1.035-.982-.328l-.604.607.186.636c.35 1.198.32 2.806-.076 4.045-1.403 4.391-6.182 6.495-10.297 4.535-5.087-2.424-5.728-9.244-1.191-12.686 2.454-1.862 6.051-1.908 8.623-.111l.395.276.542-.538c.299-.297.543-.557.543-.58 0-.078-.927-.729-1.432-1.005-1.549-.848-3.525-1.236-5.266-1.033m4.209 5.656c-2.174 2.175-3.991 3.946-4.036 3.936-.046-.01-.708-.639-1.473-1.398-.838-.833-1.441-1.381-1.52-1.381-.209 0-1.594 1.428-1.594 1.644 0 .24 4.34 4.582 4.614 4.616.155.02.394-.194 1.748-1.567.862-.875 3.005-3.039 4.761-4.808 2.917-2.94 3.193-3.236 3.193-3.443 0-.302-1.25-1.554-1.554-1.554-.154 0-.847.662-4.139 3.955"/></svg>