<?xml version="1.0" encoding="UTF-8"?><svg id="uuid-26633159-482c-46ad-88ea-09a8cc319920" xmlns="http://www.w3.org/2000/svg" width="19.74" height="19.77" viewBox="0 0 19.74 19.77"><g id="uuid-b5adc7a7-1ceb-4764-a887-820c7964a53c"><path d="M9.55.07c-.34.19-.38.42-.35,1.93.02,1.35.03,1.39.2,1.58.26.26.68.27.94.01.18-.18.18-.19.18-1.68s0-1.5-.17-1.69c-.2-.23-.54-.3-.81-.16M3.08,2.78c-.28.13-.43.44-.36.75.07.29,1.94,2.17,2.22,2.24.53.13.99-.39.78-.88-.14-.32-1.97-2.12-2.22-2.18-.1-.02-.29,0-.42.07M16.11,2.78c-.28.14-1.88,1.72-2.03,1.99-.18.34-.14.62.12.84.45.38.65.27,1.88-.99.82-.83.95-1.01.95-1.21,0-.32-.11-.5-.37-.64-.27-.14-.29-.14-.56,0M8.52,4.83c-3.37.91-4.9,4.84-3.04,7.82,1.65,2.64,5.24,3.24,7.69,1.28,2.8-2.24,2.47-6.72-.64-8.54-1.14-.67-2.75-.89-4.01-.55M9.08,6.11c-1.3.27-2.57,1.49-2.92,2.8-.65,2.48,1.41,4.97,3.96,4.8,1.44-.09,2.82-1.1,3.34-2.45.33-.86.26-2.33-.16-3.14-.4-.78-1.31-1.59-2.15-1.88-.51-.18-1.53-.24-2.08-.13M.39,9.27c-.42.18-.52.65-.22,1.01q.19.23,1.72.23t1.71-.2c.31-.34.22-.82-.19-1.04-.29-.15-2.69-.16-3.03,0M16.41,9.24c-.45.18-.58.75-.26,1.09q.18.19,1.7.19c1.52,0,1.52,0,1.71-.18.32-.32.23-.84-.19-1.05-.24-.12-2.67-.16-2.96-.04M3.81,15.04c-1.01,1-1.09,1.1-1.09,1.36,0,.49.53.84.95.62.31-.16,2.06-2.02,2.11-2.24.08-.38-.27-.81-.67-.82-.18,0-.4.18-1.3,1.08M14.16,14.14c-.14.14-.18.26-.18.5,0,.3.04.35.95,1.28,1.25,1.27,1.47,1.38,1.9.96.16-.16.22-.29.22-.5,0-.43-1.99-2.42-2.42-2.42-.17,0-.34.06-.46.18M9.6,16.01c-.36.16-.41.36-.41,1.85s.05,1.7.43,1.86c.28.12.58.04.77-.2.14-.17.15-.3.15-1.66,0-1.55,0-1.58-.37-1.83-.22-.15-.27-.15-.56-.02" style="fill:#ecf9ff; fill-rule:evenodd;"/></g></svg>