<svg xmlns="http://www.w3.org/2000/svg" fill="#ecf9ff" viewBox="0 0 24 24"><path fill-rule="evenodd" d="M10.863 4.701c-1.958.384-3.53 1.889-4.041 3.867-.129.499-.133.504-.338.535-1.626.245-2.691.997-3.354 2.367-1.13 2.338.187 5.119 2.727 5.761.42.106.663.118 2.382.118h1.915l-.017-.517-.017-.517-1.981-.032c-1.843-.029-2.004-.04-2.321-.159-1.45-.546-2.307-2.1-1.963-3.558.269-1.144 1.286-2.14 2.421-2.372.329-.067 1.138-.047 1.35.035.064.024.088-.096.116-.578.099-1.746 1.15-3.172 2.772-3.761.645-.234 1.883-.234 2.523-.001 1.605.586 2.665 2.036 2.772 3.791.033.553.041.581.159.553 2.096-.494 4.051 1.286 3.758 3.421-.124.902-.798 1.874-1.568 2.263-.7.353-.816.368-2.875.368h-1.882v1.064h1.911c1.745 0 1.951-.01 2.38-.122.771-.202 1.34-.533 1.92-1.115 2.388-2.398 1.016-6.492-2.34-6.981l-.475-.069-.075-.395c-.277-1.461-1.35-2.832-2.784-3.555-.813-.41-2.161-.59-3.075-.411m-.161 7.252c-1.73 2.189-1.913 2.426-1.908 2.479.003.027.175.189.383.36l.377.31.283-.343c.155-.189.522-.654.815-1.033s.545-.69.562-.691c.016-.001.022 1.448.013 3.221l-.015 3.222h1.065l.015-3.236.016-3.236.763.974c.42.536.794 1.009.831 1.05.054.06.148.012.449-.229.457-.366.443-.337.278-.565a384 384 0 0 0-2.821-3.584c-.023-.025-.52.56-1.106 1.301"/></svg>