<?xml version="1.0" encoding="UTF-8"?><svg id="uuid-c5173a20-cb74-4911-8b89-b30edfdcf99b" xmlns="http://www.w3.org/2000/svg" width="19.91" height="19.67" viewBox="0 0 19.91 19.67"><g id="uuid-5651e1de-1011-4ff9-9b1d-d08109323270"><path d="M6.98.11c-1.76.38-3.15,1.71-3.62,3.44-.21.76-.17,2,.09,2.72.4,1.13,1.32,2.19,2.35,2.7,1.73.86,3.62.69,5.18-.48,2.02-1.52,2.4-4.7.78-6.69C10.62.39,8.73-.28,6.98.11M3.84,10C1.72,11.13.21,13.31.01,15.55c-.1,1.17.38,1.56,2.63,2.08,1.9.44,2.75.55,4.82.59,2.48.05,2.24.13,2.52-.88.5-1.85.23-1.45,2.42-3.65l1.93-1.94-.47-.48c-.56-.55-1.2-1.02-1.9-1.38q-.48-.25-.69-.11c-.83.59-1.98.91-3.25.91-1.27,0-2.16-.23-3.11-.81-.13-.08-.27-.16-.41-.23-.01,0-.31.15-.66.34M17.51,10.34c-.11.03-.4.24-.63.47l-.43.41,1.29,1.29q1.29,1.29,1.54,1.06c.44-.42.63-.79.63-1.22s-.02-.49-.9-1.35c-.72-.71-.97-.82-1.5-.67M13.67,14.03l-2.22,2.21-.4,1.42c-.45,1.6-.47,1.8-.24,1.96.15.1.26.07,1.7-.36l1.54-.47,2.22-2.22,2.22-2.22-1.26-1.27c-.7-.7-1.28-1.27-1.3-1.27-.02,0-1.03.99-2.25,2.21M12.23,16.66c-.1.02-.17.09-.19.21-.02.1-.11.41-.19.7q-.15.52.11.78t.92.06c.71-.22.75-.25.75-.56,0-.23-.95-1.26-1.15-1.24-.08,0-.17.02-.25.04" style="fill-rule:evenodd;"/></g></svg>