<?xml version="1.0" encoding="UTF-8"?><svg id="uuid-70148341-453b-4662-a584-69c59329e33e" xmlns="http://www.w3.org/2000/svg" width="19.9" height="19.43" viewBox="0 0 19.9 19.43"><g id="uuid-3b78b070-4e88-4289-993e-b94d3223be4f"><path d="M6.91.11c-3.01.66-4.6,3.91-3.27,6.68,1.15,2.4,4.13,3.37,6.54,2.13,1.52-.78,2.51-2.43,2.51-4.17,0-3.01-2.83-5.28-5.78-4.63M3.88,9.9C1.88,10.99.54,12.73.09,14.82c-.2.93-.09,1.56.35,1.97.92.86,6.06,1.6,9.23,1.33l.65-.06v-.52c0-.29.02-.59.05-.67.04-.12.02-.16-.15-.23-.27-.11-.58-.42-.73-.74-.2-.4-.18-1.85.02-2.24.16-.3.49-.61.75-.71.14-.05.15-.08.08-.21-.14-.26-.1-.82.08-1.17.19-.38,1.18-1.36,1.51-1.49q.23-.09-.14-.28t-1.19.22c-1.85.91-3.67.89-5.48-.06-.35-.19-.65-.34-.68-.33-.03,0-.28.13-.56.28M14.46,10.27c-.1.09-.18.27-.24.56q-.09.44-.47.6-.39.17-.79-.12c-.5-.35-.55-.34-1.13.28-.52.56-.52.56-.2,1.06q.25.38.12.75c-.14.4-.14.4-.7.51-.54.1-.55.12-.55.89s.03.84.62.96c.44.09.52.16.68.61.08.23.07.26-.17.63-.32.49-.3.58.26,1.12.52.5.62.51,1.11.17q.36-.25.75-.08.39.17.48.6c.12.61.12.61.97.61s.79.03.94-.6q.11-.44.5-.61.39-.17.73.08c.48.35.59.33,1.14-.23.57-.58.57-.57.27-1-.27-.4-.29-.5-.13-.87.13-.32.17-.34.66-.44.53-.1.59-.21.59-.93s-.11-.86-.71-.94q-.39-.05-.56-.43-.17-.38.12-.81c.34-.52.33-.57-.33-1.19-.51-.48-.5-.48-1.02-.13q-.41.27-.79.1-.38-.17-.46-.58c-.12-.62-.15-.64-.89-.67-.55-.02-.66-.01-.79.1M14.61,13.12c-1.33.51-1.65,2.06-.63,3.04,1.32,1.27,3.42-.1,2.92-1.91-.24-.85-1.45-1.45-2.28-1.13" style="fill-rule:evenodd;"/></g></svg>